<svg width="28" height="28" viewBox="0 0 28 28" fill="none" xmlns="http://www.w3.org/2000/svg">
<path d="M28 4.66663H24.5V10.5H28V4.66663Z" fill="#FF4267"/>
<path d="M28 12.8334H24.5V18.6667H28V12.8334Z" fill="#FF4267"/>
<path d="M19.8332 0H1.1665V28H19.8332C21.7628 28 23.3332 26.4297 23.3332 24.5V3.5C23.3332 1.57033 21.7628 0 19.8332 0ZM12.2498 7C13.861 7 15.1665 8.3055 15.1665 9.91667C15.1665 11.5278 13.861 12.8333 12.2498 12.8333C10.6387 12.8333 9.33317 11.5278 9.33317 9.91667C9.33317 8.3055 10.6387 7 12.2498 7ZM17.4998 19.8333H6.99984V17.9422C6.99984 16.9027 7.68234 15.9938 8.67984 15.6998C9.60734 15.4257 10.8533 15.1667 12.2498 15.1667C13.6463 15.1667 14.8923 15.4257 15.8198 15.6998C16.8173 15.9938 17.4998 16.9027 17.4998 17.9422V19.8333Z" fill="#FF4267"/>
</svg>
