<svg width="213" height="165" viewBox="0 0 213 165" fill="none" xmlns="http://www.w3.org/2000/svg">
<circle cx="110" cy="90" r="75" fill="#E5E2FF"/>
<circle cx="77" cy="5" r="5" fill="#3629B7"/>
<circle cx="200.5" cy="34.5" r="12.5" fill="#FF4267"/>
<circle cx="183" cy="136" r="5" fill="#0890FE"/>
<circle cx="52" cy="136" r="10" fill="#FFAF2A"/>
<circle cx="5" cy="70" r="5" fill="#52D5BA"/>
<path d="M120.538 83.3238C119.92 83.3238 119.393 82.8129 119.393 82.1926V72.2306C119.393 67.0124 115.178 62.7794 109.982 62.7794C104.786 62.7794 100.571 67.0306 100.571 72.2306V82.1926C100.571 82.8129 100.062 83.3238 99.4259 83.3238H93.1033C92.4855 83.3238 91.9768 82.8129 91.9768 82.1926V72.2306C91.9768 62.2503 100.062 54.1311 110 54.1311C119.938 54.1311 128.023 62.2503 128.023 72.2306V82.1926C128.023 82.8129 127.515 83.3238 126.879 83.3238H120.538Z" fill="#5655B9"/>
<path d="M110 55.2624C119.302 55.2624 126.879 62.8708 126.879 72.2124V82.1745H120.556V72.2124C120.556 66.3739 115.832 61.6118 110 61.6118C104.186 61.6118 99.4441 66.3557 99.4441 72.2124V82.1745H93.1214V72.2124C93.1214 62.8708 100.68 55.2624 110 55.2624ZM110 53C99.4441 53 90.8503 61.6301 90.8503 72.2307V82.1927C90.8503 83.4516 91.8678 84.4734 93.1214 84.4734H99.4441C100.698 84.4734 101.715 83.4516 101.715 82.1927V72.2307C101.715 67.6511 105.422 63.9108 110 63.9108C114.56 63.9108 118.285 67.6511 118.285 72.2307V82.1927C118.285 83.4516 119.302 84.4734 120.556 84.4734H126.879C128.132 84.4734 129.15 83.4516 129.15 82.1927V72.2307C129.15 61.6118 120.556 53 110 53Z" fill="white"/>
<path d="M88.8881 124.887C87.3619 124.887 86.1265 123.646 86.1265 122.114V83.8165C86.1265 82.2839 87.3619 81.0432 88.8881 81.0432H131.112C132.638 81.0432 133.874 82.2839 133.874 83.8165V122.095C133.874 123.628 132.638 124.869 131.112 124.869H88.8881V124.887Z" fill="#5655B9"/>
<path d="M131.112 82.1928C132.002 82.1928 132.729 82.9226 132.729 83.8349V122.114C132.729 123.008 132.002 123.756 131.112 123.756H88.8881C87.9797 123.756 87.2711 123.026 87.2711 122.114V83.8166C87.2711 82.9226 87.9978 82.1745 88.8881 82.1745H131.112V82.1928ZM131.112 79.9121H88.8881C86.7442 79.9121 85 81.6637 85 83.8166V122.096C85 124.249 86.7442 126 88.8881 126H131.112C133.256 126 135 124.249 135 122.096V83.8166C135 81.6637 133.256 79.9121 131.112 79.9121Z" fill="white"/>
<path d="M131.112 82.1929H122.863V112.371C122.863 113.265 122.137 113.995 121.228 113.995H87.2529V122.096C87.2529 122.99 87.9797 123.738 88.8699 123.738H131.094C131.984 123.738 132.711 123.008 132.711 122.096V83.8167C132.729 82.9227 132.002 82.1929 131.112 82.1929Z" fill="#5655B9"/>
<path d="M131.112 82.1929H128.023V116.932C128.023 117.844 127.297 118.556 126.388 118.556H87.2529V122.114C87.2529 123.008 87.9797 123.756 88.8699 123.756H131.094C131.984 123.756 132.711 123.026 132.711 122.114V83.8167C132.729 82.9227 132.002 82.1929 131.112 82.1929Z" fill="#5655B9"/>
<path d="M108.172 107.262C108.172 107.003 108.011 106.771 107.77 106.679C105.426 105.784 103.774 103.512 103.774 100.858C103.775 97.4256 106.566 94.6401 109.981 94.6399C113.414 94.6399 116.188 97.4244 116.188 100.858C116.188 103.512 114.537 105.784 112.193 106.679C111.952 106.771 111.792 107.003 111.792 107.262V110.473C111.792 111.481 110.979 112.294 109.981 112.294C108.984 112.294 108.172 111.481 108.172 110.473V107.262Z" fill="#5655B9" stroke="white" stroke-width="1.2486" stroke-miterlimit="10" stroke-linecap="round" stroke-linejoin="round"/>
</svg>
