<svg width="28" height="28" viewBox="0 0 28 28" fill="none" xmlns="http://www.w3.org/2000/svg">
<path d="M21 0H7C6.07174 0 5.1815 0.368749 4.52513 1.02513C3.86875 1.6815 3.5 2.57174 3.5 3.5V24.5C3.5 25.4283 3.86875 26.3185 4.52513 26.9749C5.1815 27.6313 6.07174 28 7 28H21C21.9283 28 22.8185 27.6313 23.4749 26.9749C24.1313 26.3185 24.5 25.4283 24.5 24.5V3.5C24.5 2.57174 24.1313 1.6815 23.4749 1.02513C22.8185 0.368749 21.9283 0 21 0V0ZM22.1667 23.3333C22.1667 23.6428 22.0438 23.9395 21.825 24.1583C21.6062 24.3771 21.3094 24.5 21 24.5H7C6.69058 24.5 6.39383 24.3771 6.17504 24.1583C5.95625 23.9395 5.83333 23.6428 5.83333 23.3333V4.66667C5.83333 4.35725 5.95625 4.0605 6.17504 3.84171C6.39383 3.62292 6.69058 3.5 7 3.5H21C21.3094 3.5 21.6062 3.62292 21.825 3.84171C22.0438 4.0605 22.1667 4.35725 22.1667 4.66667V23.3333Z" fill="#FFAF2A"/>
<path d="M18.1368 14.679C17.3652 13.9603 16.444 13.4212 15.4395 13.1005L14.6601 12.803V9.0697C15.7589 9.16052 16.8377 9.41616 17.8603 9.82804L18.6081 7.95204C17.3529 7.43902 16.0156 7.15606 14.6601 7.1167V5.41687H13.2998V7.1377C12.2152 7.20158 11.1743 7.58702 10.3096 8.24487C9.95797 8.52201 9.67545 8.87701 9.48434 9.28191C9.29323 9.68682 9.19873 10.1306 9.2083 10.5782C9.18364 11.3872 9.45916 12.1768 9.9818 12.7949C10.6618 13.4995 11.5025 14.0287 12.4318 14.3372L13.294 14.6557V18.4905C12.5805 18.4706 11.8716 18.3692 11.1811 18.1884C10.4705 18.0202 9.77955 17.7777 9.11963 17.465V19.6315C10.4442 20.1703 11.8642 20.4354 13.294 20.4109V22.5715H14.6566V20.3467C15.8007 20.2847 16.8974 19.8689 17.795 19.1567C18.1476 18.855 18.4286 18.4787 18.6177 18.0549C18.8068 17.6311 18.8991 17.1706 18.8881 16.7067C18.9067 15.9595 18.6378 15.2337 18.1368 14.679V14.679ZM13.2916 12.2967C12.804 12.1346 12.3554 11.8728 11.9745 11.5279C11.729 11.264 11.5978 10.9139 11.6093 10.5537C11.6066 10.3745 11.6438 10.1969 11.7183 10.0338C11.7927 9.87079 11.9026 9.72636 12.0398 9.61104C12.4005 9.32735 12.8349 9.15286 13.2916 9.1082V12.2967ZM14.6543 18.4042V15.1375C15.1592 15.2956 15.6303 15.546 16.0438 15.876C16.1797 15.9997 16.2872 16.1513 16.3589 16.3205C16.4306 16.4897 16.4648 16.6724 16.4591 16.856C16.4607 17.703 15.8591 18.2191 14.6543 18.4042V18.4042Z" fill="#FFAF2A"/>
</svg>
