<svg width="24" height="24" viewBox="0 0 24 24" fill="none" xmlns="http://www.w3.org/2000/svg">
<path d="M21.8551 18.482C20.6698 16.5232 20.0294 14.2833 20.0001 11.994V8.00598C20.0001 5.88425 19.1573 3.84942 17.657 2.34913C16.1567 0.848836 14.1218 0.00598145 12.0001 0.00598145C9.87838 0.00598145 7.84354 0.848836 6.34325 2.34913C4.84296 3.84942 4.00011 5.88425 4.00011 8.00598V11.988C3.97182 14.2793 3.33137 16.5214 2.14511 18.482C2.05328 18.6336 2.00341 18.8069 2.00061 18.9842C1.99782 19.1615 2.04219 19.3363 2.12919 19.4907C2.21619 19.6452 2.34269 19.7738 2.49572 19.8632C2.64876 19.9527 2.82283 19.9999 3.00011 20H21.0001C21.1774 19.9999 21.3515 19.9527 21.5045 19.8632C21.6575 19.7738 21.784 19.6452 21.871 19.4907C21.958 19.3363 22.0024 19.1615 21.9996 18.9842C21.9968 18.8069 21.9469 18.6336 21.8551 18.482Z" fill="#898989"/>
<path d="M13.0073 23.825C13.4264 23.6756 13.8071 23.435 14.1217 23.1203C14.4363 22.8057 14.677 22.4251 14.8263 22.006H9.17432C9.30655 22.3771 9.51059 22.7185 9.77478 23.0108C10.039 23.3031 10.3582 23.5404 10.7141 23.7093C11.07 23.8783 11.4557 23.9754 11.8492 23.9952C12.2427 24.0151 12.6362 23.9572 13.0073 23.825Z" fill="#898989"/>
</svg>
