<svg width="327" height="216" viewBox="0 0 327 216" fill="none" xmlns="http://www.w3.org/2000/svg">
<ellipse cx="163.5" cy="179" rx="163.5" ry="37" fill="#F2F1F9"/>
<path d="M273.095 166.901C295.001 171.727 318.215 156.996 318.486 148.269C318.758 139.543 297.468 157.659 294.384 148.777C291.301 139.896 317.549 136.332 317.919 126.942C318.289 117.552 294.713 139.724 292.888 133.726C291.07 127.728 313.807 113.529 310.428 106.63C307.048 99.7312 293.307 124.017 289.393 120.739C285.479 117.47 301.341 94.8397 291.786 93.1027C282.23 91.3657 283.892 112.177 280.561 116.405C277.231 120.633 277.428 96.3883 271.738 98.2482C266.047 100.108 275.792 123.46 271.943 126.606C268.095 129.752 262.363 109.014 255.9 113.799C249.437 118.584 266.097 131.817 264.51 137.995C262.923 144.165 252.109 125.721 246.312 130.604C240.514 135.479 254.74 162.862 273.095 166.901Z" fill="#52D5BA"/>
<path d="M289.443 99.8376C289.443 99.8376 279.517 139.519 267.38 175.84" stroke="#4CA5A2" stroke-width="1.6286" stroke-miterlimit="10" stroke-linecap="round"/>
<path d="M309.17 131.226C309.17 131.226 281.984 144.606 273.07 156.782C273.07 156.782 273.399 135.077 259.519 120.231" stroke="#4CA5A2" stroke-width="1.6286" stroke-miterlimit="10" stroke-linecap="round"/>
<path d="M302.755 113.931C302.755 113.931 282.477 133.21 276.121 147.622C276.121 147.622 277.774 121.567 273.547 107.794" stroke="#4CA5A2" stroke-width="1.6286" stroke-miterlimit="10" stroke-linecap="round"/>
<path d="M313.034 150.842C313.034 150.842 276.269 156.913 271.647 162.976C271.647 162.976 261.467 140.239 248.828 134.168" stroke="#4CA5A2" stroke-width="1.6286" stroke-miterlimit="10" stroke-linecap="round"/>
<path d="M274.92 156.651C280.578 143.82 298.118 116.479 313.207 120.272C330.607 124.648 291.202 151.719 291.202 151.719C291.202 151.719 318.289 136.282 325.607 148.417C332.934 160.552 293.085 162.19 293.085 162.19C293.085 162.19 314.136 160.765 310.979 168.598C307.829 176.431 274.032 169.417 270.57 176.898C267.116 184.37 271.039 165.443 274.92 156.651Z" fill="#52D5BA"/>
<path d="M271.096 173.628C276.4 159.928 284.393 147.032 294.886 136.683C298.742 132.881 302.944 129.432 307.467 126.441" stroke="#4CA5A2" stroke-width="1.6286" stroke-miterlimit="10" stroke-linecap="round"/>
<path d="M271.285 173.906C282.666 159.896 299.967 150.891 317.771 150.448" stroke="#4CA5A2" stroke-width="1.6286" stroke-miterlimit="10" stroke-linecap="round"/>
<path d="M271.466 174.054C280.783 168.425 291.901 166.385 302.69 167.098" stroke="#4CA5A2" stroke-width="1.6286" stroke-miterlimit="10" stroke-linecap="round"/>
<path d="M266.689 172.53C268.637 166.828 275.364 162.682 280.586 160.543C293.373 155.308 314.079 150.916 323.774 164.14C326.857 168.352 327.819 174.038 326.273 179.02C323.453 188.122 313.256 192.26 304.573 193.514C292.962 195.185 276.556 192.76 268.843 182.903C267.511 181.199 266.483 179.208 266.212 177.069C266.014 175.464 266.212 173.948 266.689 172.53Z" fill="#52D5BA"/>
<path d="M268.432 175.914C268.432 175.914 304.071 166.335 323.593 172.89" stroke="#4CA5A2" stroke-width="1.6286" stroke-miterlimit="10" stroke-linecap="round"/>
<path d="M315.658 182.461C315.658 182.461 306.439 171.367 301.218 170.875C301.218 170.875 308.643 163.616 314.293 161.985" stroke="#4CA5A2" stroke-width="1.6286" stroke-miterlimit="10" stroke-linecap="round"/>
<path d="M300.996 157.822C300.996 157.822 290.52 165.18 290.281 171.686C290.281 171.686 299.631 180.887 303.142 188.179" stroke="#4CA5A2" stroke-width="1.6286" stroke-miterlimit="10" stroke-linecap="round"/>
<path d="M282.674 161.796C282.674 161.796 278.629 169.744 279.254 173.702C279.254 173.702 285.125 181.723 288.274 188.917" stroke="#4CA5A2" stroke-width="1.6286" stroke-miterlimit="10" stroke-linecap="round"/>
<path d="M92.7684 149.021C70.9175 153.854 47.7625 139.099 47.4918 130.359C47.2211 121.618 68.4568 139.763 71.5327 130.867C74.6085 121.971 48.4269 118.401 48.0578 108.997C47.6887 99.5916 71.2046 121.799 73.0255 115.792C74.8382 109.784 52.1589 95.5622 55.53 88.6521C58.9012 81.7421 72.6072 106.067 76.5115 102.784C80.4157 99.5096 64.5936 76.8427 74.1246 75.1029C83.6556 73.3631 81.9988 94.208 85.3207 98.4427C88.6426 102.677 88.4458 78.3938 94.1217 80.2567C99.7977 82.1196 90.078 105.509 93.9167 108.66C97.7553 111.811 103.472 91.0403 109.919 95.833C116.366 100.626 99.7485 113.879 101.332 120.067C102.915 126.247 113.701 107.774 119.483 112.665C125.266 117.548 111.076 144.975 92.7684 149.021Z" fill="#52D5BA"/>
<path d="M76.4629 81.8486C76.4629 81.8486 86.363 121.594 98.4696 157.974" stroke="#4CA5A2" stroke-width="1.6286" stroke-miterlimit="10" stroke-linecap="round"/>
<path d="M56.7852 113.289C56.7852 113.289 83.9019 126.69 92.7931 138.885C92.7931 138.885 92.465 117.146 106.31 102.275" stroke="#4CA5A2" stroke-width="1.6286" stroke-miterlimit="10" stroke-linecap="round"/>
<path d="M63.1831 95.9642C63.1831 95.9642 83.4099 115.275 89.7503 129.71C89.7503 129.71 88.1016 103.613 92.3176 89.8174" stroke="#4CA5A2" stroke-width="1.6286" stroke-miterlimit="10" stroke-linecap="round"/>
<path d="M52.9302 132.935C52.9302 132.935 89.6025 139.016 94.2122 145.089C94.2122 145.089 104.367 122.316 116.974 116.234" stroke="#4CA5A2" stroke-width="1.6286" stroke-miterlimit="10" stroke-linecap="round"/>
<path d="M90.948 138.754C85.3049 125.902 67.8094 98.5166 52.7583 102.316C35.4022 106.69 74.7075 133.805 74.7075 133.805C74.7075 133.805 47.6892 118.344 40.3892 130.498C33.081 142.652 72.8292 144.294 72.8292 144.294C72.8292 144.294 51.8314 142.866 54.9811 150.711C58.1225 158.557 91.8339 151.524 95.287 159.025C98.732 166.517 94.8195 147.56 90.948 138.754Z" fill="#52D5BA"/>
<path d="M94.762 155.758C89.4716 142.037 81.499 129.119 71.0329 118.754C67.186 114.947 62.9946 111.492 58.4834 108.496" stroke="#4CA5A2" stroke-width="1.6286" stroke-miterlimit="10" stroke-linecap="round"/>
<path d="M94.5735 156.037C83.2216 142.003 65.964 132.984 48.2061 132.541" stroke="#4CA5A2" stroke-width="1.6286" stroke-miterlimit="10" stroke-linecap="round"/>
<path d="M94.393 156.184C85.0999 150.546 74.0104 148.503 63.249 149.217" stroke="#4CA5A2" stroke-width="1.6286" stroke-miterlimit="10" stroke-linecap="round"/>
<path d="M99.1582 154.658C97.2143 148.947 90.5048 144.794 85.2964 142.652C72.5419 137.408 51.8885 133.009 42.2181 146.255C39.1422 150.473 38.1826 156.168 39.7246 161.158C42.538 170.276 52.7088 174.42 61.3704 175.676C72.952 177.35 89.3155 174.921 97.0092 165.048C98.338 163.341 99.3633 161.347 99.634 159.205C99.8308 157.596 99.634 156.078 99.1582 154.658Z" fill="#52D5BA"/>
<path d="M97.4193 158.048C97.4193 158.048 61.8706 148.455 42.3984 155.02" stroke="#4CA5A2" stroke-width="1.6286" stroke-miterlimit="10" stroke-linecap="round"/>
<path d="M50.3135 164.605C50.3135 164.605 59.5082 153.493 64.7167 153.001C64.7167 153.001 57.31 145.73 51.6751 144.097" stroke="#4CA5A2" stroke-width="1.6286" stroke-miterlimit="10" stroke-linecap="round"/>
<path d="M64.9386 139.919C64.9386 139.919 75.3883 147.289 75.6262 153.805C75.6262 153.805 66.3002 163.021 62.7979 170.325" stroke="#4CA5A2" stroke-width="1.6286" stroke-miterlimit="10" stroke-linecap="round"/>
<path d="M83.2127 143.907C83.2127 143.907 87.2482 151.868 86.6248 155.832C86.6248 155.832 80.7684 163.866 77.627 171.071" stroke="#4CA5A2" stroke-width="1.6286" stroke-miterlimit="10" stroke-linecap="round"/>
<path d="M267.43 166.259C266.936 166.259 266.514 165.85 266.514 165.354V157.384C266.514 153.21 263.142 149.824 258.985 149.824C254.828 149.824 251.456 153.225 251.456 157.384V165.354C251.456 165.85 251.049 166.259 250.54 166.259H245.482C244.988 166.259 244.581 165.85 244.581 165.354V157.384C244.581 149.4 251.049 142.905 259 142.905C266.95 142.905 273.418 149.4 273.418 157.384V165.354C273.418 165.85 273.011 166.259 272.503 166.259H267.43Z" fill="#FFAF2A"/>
<path d="M259 143.81C266.442 143.81 272.503 149.897 272.503 157.37V165.34H267.445V157.37C267.445 152.699 263.666 148.889 259 148.889C254.349 148.889 250.555 152.685 250.555 157.37V165.34H245.497V157.37C245.497 149.897 251.544 143.81 259 143.81ZM259 142C250.555 142 243.68 148.904 243.68 157.385V165.354C243.68 166.361 244.494 167.179 245.497 167.179H250.555C251.558 167.179 252.372 166.361 252.372 165.354V157.385C252.372 153.721 255.337 150.729 259 150.729C262.648 150.729 265.628 153.721 265.628 157.385V165.354C265.628 166.361 266.442 167.179 267.445 167.179H272.503C273.506 167.179 274.32 166.361 274.32 165.354V157.385C274.32 148.889 267.445 142 259 142Z" fill="white"/>
<path d="M242.11 199.51C240.889 199.51 239.901 198.517 239.901 197.291V166.653C239.901 165.427 240.889 164.435 242.11 164.435H275.889C277.11 164.435 278.099 165.427 278.099 166.653V197.276C278.099 198.503 277.11 199.495 275.889 199.495H242.11V199.51Z" fill="#FFAF2A"/>
<path d="M275.89 165.354C276.602 165.354 277.183 165.938 277.183 166.668V197.291C277.183 198.006 276.602 198.605 275.89 198.605H242.11C241.384 198.605 240.817 198.021 240.817 197.291V166.653C240.817 165.938 241.398 165.34 242.11 165.34H275.89V165.354ZM275.89 163.53H242.11C240.395 163.53 239 164.931 239 166.653V197.276C239 198.999 240.395 200.4 242.11 200.4H275.89C277.605 200.4 279 198.999 279 197.276V166.653C279 164.931 277.605 163.53 275.89 163.53Z" fill="white"/>
<path d="M275.889 165.354H269.291V189.497C269.291 190.212 268.709 190.796 267.983 190.796H240.802V197.276C240.802 197.992 241.384 198.59 242.096 198.59H275.875C276.587 198.59 277.169 198.006 277.169 197.276V166.653C277.183 165.938 276.602 165.354 275.889 165.354Z" fill="#FFAF2A"/>
<path d="M275.889 165.354H273.419V193.146C273.419 193.876 272.837 194.445 272.11 194.445H240.802V197.291C240.802 198.006 241.384 198.605 242.096 198.605H275.875C276.587 198.605 277.169 198.021 277.169 197.291V166.653C277.183 165.938 276.602 165.354 275.889 165.354Z" fill="#FFAF2A"/>
<path d="M264.45 180.286C264.45 177.265 262.008 174.813 258.985 174.813C255.976 174.813 253.52 177.265 253.52 180.286C253.52 182.622 254.974 184.622 257.037 185.41V187.979C257.037 189.059 257.91 189.935 258.985 189.935C260.061 189.935 260.933 189.059 260.933 187.979V185.41C262.997 184.622 264.45 182.622 264.45 180.286Z" fill="#FFAF2A" stroke="white" stroke-width="1.2486" stroke-miterlimit="10" stroke-linecap="round" stroke-linejoin="round"/>
<path d="M156.307 172.025L100.995 171.771C94.3424 171.741 88.9752 166.324 89.0001 159.671L89.5881 21.0003C89.618 14.3424 95.0351 8.97022 101.693 9.00012L157.005 9.25428C163.658 9.28418 169.025 14.7012 169 21.3542L168.412 160.025C168.387 166.682 162.965 172.055 156.307 172.025Z" fill="#3629B7"/>
<path d="M156.925 14.0434L146.201 13.9936C144.76 13.9886 143.589 15.1996 143.584 16.7046L143.574 18.6481C143.569 20.1531 142.398 21.3641 140.958 21.3592L120.052 21.2645C118.612 21.2595 117.456 20.0335 117.461 18.5285L117.471 16.585C117.476 15.08 116.315 13.859 114.879 13.849L111.107 13.8291L101.723 13.7843C97.0634 13.7643 93.266 17.5269 93.246 22.1864L92.6729 157.538C92.653 162.197 96.4105 165.99 101.07 166.01L156.272 166.264C160.932 166.284 164.729 162.521 164.749 157.862L165.322 22.5103C165.347 17.8558 161.585 14.0633 156.925 14.0434Z" fill="white"/>
<circle cx="129" cy="91" r="15" fill="#3629B7"/>
<path d="M121.085 92.4847C121.221 92.6999 122.048 93.5885 123.126 94.8232C124.415 96.2987 125.868 97.9611 126.038 98.1494C126.35 98.4954 126.58 98.2566 127.047 97.3512C127.694 96.0974 129.027 93.3495 130.902 90.8413C132.776 88.3332 135.587 85.5657 136.256 85.0468C136.925 84.5278 137.238 84.182 136.792 84.0089C136.345 83.8359 132.861 86.2243 130.828 88.3588C128.644 90.6509 126.279 94.3929 125.693 94.4811C125.223 94.5517 122.951 92.9003 122.307 92.5122C121.559 92.0617 120.73 91.9244 121.085 92.4847Z" fill="white"/>
<path d="M214.567 181.829L209.556 177.883L216.875 168.443L224.262 174.134L223.847 174.748C221.974 177.467 214.124 188.433 212.245 189.763C210.148 191.255 214.567 181.829 214.567 181.829Z" fill="#FF4267"/>
<path d="M211.611 189.626C211.523 189.558 214.212 185.987 217.617 181.652C221.021 177.317 223.853 173.862 223.942 173.93C224.03 173.998 221.341 177.57 217.937 181.904C214.532 186.239 211.7 189.701 211.611 189.626Z" fill="#263238"/>
<path d="M215.458 182.797C215.438 182.913 215.118 182.953 214.73 182.947C214.342 182.94 214.022 182.892 214.001 182.783C213.988 182.674 214.308 182.538 214.73 182.538C215.152 182.545 215.472 182.688 215.458 182.797Z" fill="#263238"/>
<path d="M215.316 183.656C215.282 183.764 214.921 183.758 214.499 183.696C214.077 183.635 213.723 183.553 213.723 183.438C213.723 183.329 214.097 183.227 214.553 183.288C215.009 183.356 215.35 183.553 215.316 183.656Z" fill="#263238"/>
<path d="M221.681 176.738C221.627 176.752 221.511 176.54 221.375 176.172C221.245 175.804 221.089 175.266 221.109 174.632C221.13 173.998 221.382 173.446 221.661 173.133C221.94 172.819 222.205 172.744 222.226 172.785C222.26 172.84 222.076 172.989 221.892 173.303C221.708 173.61 221.538 174.094 221.518 174.646C221.497 175.205 221.599 175.716 221.654 176.097C221.715 176.472 221.736 176.724 221.681 176.738Z" fill="#263238"/>
<path d="M214.492 182.088C214.451 181.979 214.655 181.802 214.92 181.632C215.186 181.461 215.438 181.352 215.52 181.434C215.595 181.516 215.445 181.781 215.138 181.972C214.839 182.169 214.532 182.19 214.492 182.088Z" fill="#263238"/>
<path d="M214.124 181.556C214.042 181.482 214.172 181.175 214.417 180.875C214.662 180.575 214.927 180.384 215.023 180.446C215.118 180.507 214.989 180.814 214.73 181.127C214.478 181.447 214.206 181.638 214.124 181.556Z" fill="#263238"/>
<path d="M191.386 119.271C191.386 119.271 180.173 149.091 181.685 154.662C183.196 160.234 213.434 182.355 213.434 182.355L221.644 170.528C221.644 170.528 198.059 151.846 197.988 150.813C197.911 149.781 207.352 125.006 207.352 125.006L191.386 119.271Z" fill="#263238"/>
<path d="M212.913 173.262C212.908 173.267 212.872 173.247 212.806 173.206C212.724 173.155 212.627 173.088 212.509 173.012C212.234 172.823 211.861 172.567 211.386 172.24C210.416 171.56 209.022 170.568 207.322 169.311C203.921 166.796 199.3 163.208 194.398 159.007C193.173 157.959 191.983 156.921 190.845 155.909C190.278 155.403 189.721 154.902 189.175 154.417C188.634 153.926 188.077 153.43 187.735 152.781C187.373 152.127 187.388 151.36 187.526 150.711C187.659 150.052 187.822 149.433 187.98 148.83C188.302 147.629 188.624 146.515 188.92 145.497C189.502 143.484 189.982 141.848 190.319 140.688C190.472 140.136 190.595 139.696 190.686 139.374C190.722 139.236 190.758 139.124 190.783 139.032C190.809 138.955 190.819 138.914 190.824 138.919C190.829 138.919 190.824 138.96 190.809 139.042C190.789 139.134 190.768 139.251 190.737 139.389C190.671 139.696 190.564 140.141 190.421 140.713C190.13 141.863 189.675 143.514 189.109 145.549C188.828 146.566 188.516 147.685 188.205 148.886C188.052 149.489 187.888 150.113 187.766 150.757C187.643 151.396 187.633 152.076 187.965 152.669C188.282 153.262 188.818 153.742 189.359 154.228C189.905 154.713 190.462 155.209 191.034 155.715C192.172 156.722 193.362 157.76 194.587 158.802C199.484 162.999 204.079 166.607 207.449 169.163C209.129 170.415 210.493 171.437 211.458 172.163C211.917 172.506 212.28 172.777 212.55 172.976C212.663 173.063 212.755 173.134 212.831 173.191C212.887 173.231 212.918 173.257 212.913 173.262Z" fill="#455A64"/>
<path d="M210.176 176.866C210.115 176.82 211.672 174.668 213.653 172.061C215.634 169.454 217.289 167.374 217.35 167.42C217.411 167.466 215.854 169.618 213.868 172.225C211.892 174.831 210.237 176.907 210.176 176.866Z" fill="#455A64"/>
<path d="M211.187 62.5614C212.188 64.565 212.714 66.3029 214.7 67.3354C215.594 67.8005 216.686 68.0663 217.227 68.9199C217.815 69.8502 217.539 71.1944 218.279 72.0071C219.357 73.1879 221.568 72.232 222.778 73.2696C223.86 74.1999 223.513 76.1933 224.677 77.0111C225.336 77.4711 226.229 77.3689 226.975 77.6603C228.2 78.1356 228.782 79.5515 228.941 80.8549C229.068 81.8976 229.012 82.9965 228.553 83.9472C228.098 84.8979 227.199 85.6748 226.153 85.7822C224.764 85.9304 223.186 84.9695 222.063 85.7975C221.665 86.094 221.43 86.554 221.123 86.9424C220.424 87.8318 219.275 88.3481 218.147 88.2765C217.018 88.2049 215.941 87.5507 215.359 86.5795C214.583 85.2864 214.634 83.4974 213.495 82.5058C212.903 81.9845 212.096 81.8004 211.356 81.5244C210.615 81.2484 209.854 80.7884 209.63 80.0319C209.415 79.2959 208.986 78.8257 208.563 78.1919C207.996 77.3434 207.235 78.381 206.484 77.9618C205.734 77.5427 206.02 76.7249 205.953 75.8611" fill="#263238"/>
<path d="M197.977 91.5322L188.286 88.2865C188.286 88.2865 184.002 100.635 182.69 100.758C175.419 101.423 167.638 99.0101 164.911 98.0543C164.635 97.7425 164.319 97.3693 163.966 96.9093C163.665 96.5157 163.435 96.0711 163.282 95.6008C163.098 95.0283 162.879 94.2616 162.894 93.8016C162.91 93.2343 162.23 92.9429 161.914 93.3518C161.597 93.7607 161.521 95.3197 162.236 96.9962C162.955 98.6727 160.413 97.3387 159.478 96.8684C158.544 96.3982 155.582 95.0795 155.215 95.2532C154.668 95.5088 154.842 96.1375 155.787 96.5873C156.741 97.0422 159.468 98.5756 159.197 99.0561C158.932 99.5314 154.204 97.0729 154.204 97.0729C154.204 97.0729 153.28 96.3828 152.948 96.9298C152.35 97.9162 157.564 100.155 158.064 100.359C158.411 100.497 158.135 101.034 157.768 100.865C157.39 100.692 153.111 98.3047 152.493 99.3014C152.018 100.068 156.767 101.187 157.38 102.174C157.992 103.16 153.867 100.957 153.443 101.709C153.285 101.99 153.203 102.22 155.761 103.14C157.002 103.59 159.335 104.137 161.449 104.597L161.439 104.622C161.439 104.622 186.943 116.041 192.443 105.031C198.274 93.362 197.977 91.5322 197.977 91.5322Z" fill="#E5BAAB"/>
<path d="M207.562 81.3094L211.795 81.3861L215.155 91.0312L212.418 102.082C211.616 105.312 215.246 111.768 215.155 115.33L191.412 119.179L190.911 103.304L190.901 102.772L182.686 98.6675L185.397 92.0177C189.568 82.2346 196.855 81.6417 196.855 81.6417L207.562 81.3094Z" fill="#FF4267"/>
<path d="M191.044 102.655C191.034 102.67 190.845 102.593 190.534 102.384C190.232 102.169 189.803 101.821 189.436 101.249C189.063 100.692 188.803 99.874 188.874 98.9796C188.91 98.0953 189.191 97.1088 189.798 96.2706C190.258 95.6163 190.85 95.1052 191.483 94.7627L191.412 94.8598C191.606 93.4031 191.785 92.1508 191.922 91.2615C192.06 90.3721 192.152 89.8558 192.183 89.8558C192.213 89.8609 192.173 90.3874 192.081 91.2819C191.989 92.1764 191.846 93.4338 191.667 94.8905L191.662 94.9518L191.596 94.9876C191.029 95.3045 190.452 95.8003 190.023 96.4188C189.451 97.2161 189.175 98.1413 189.129 98.9847C189.048 99.8332 189.267 100.59 189.599 101.137C189.926 101.694 190.324 102.051 190.595 102.287C190.881 102.532 191.054 102.639 191.044 102.655Z" fill="#455A64"/>
<path d="M191.938 91.9514C191.871 91.9821 191.636 91.6447 191.417 91.1949C191.197 90.7451 191.07 90.3516 191.141 90.3158C191.207 90.2851 191.442 90.6225 191.662 91.0723C191.881 91.5221 192.009 91.9156 191.938 91.9514Z" fill="#455A64"/>
<path d="M207.276 81.4475L208.006 64.7437L201.378 59.7192L195.353 62.6685C195.353 62.6685 195.154 70.2384 195.353 73.5198C195.552 76.8013 198.861 77.154 198.861 77.154C198.861 77.154 198.784 79.0758 198.708 81.0999C198.616 83.5483 200.587 85.5723 203.033 85.5519C205.315 85.5263 207.179 83.7272 207.276 81.4475Z" fill="#E5BAAB"/>
<path d="M196.012 68.1826C196.012 68.4124 196.201 68.6013 196.431 68.6013C196.661 68.6013 196.85 68.4124 196.85 68.1826C196.85 67.9528 196.661 67.7639 196.431 67.7639C196.201 67.7639 196.012 67.9528 196.012 68.1826Z" fill="#263238"/>
<path d="M195.609 67.7281C195.665 67.7843 195.971 67.5187 196.426 67.4932C196.875 67.4626 197.217 67.6873 197.263 67.626C197.289 67.6005 197.232 67.4983 197.079 67.3962C196.931 67.2941 196.686 67.2022 196.405 67.2175C196.124 67.2328 195.89 67.3554 195.757 67.4728C195.624 67.5953 195.578 67.7026 195.609 67.7281Z" fill="#263238"/>
<path d="M200.878 68.1826C200.878 68.4124 201.067 68.6013 201.297 68.6013C201.526 68.6013 201.715 68.4124 201.715 68.1826C201.715 67.9528 201.526 67.7639 201.297 67.7639C201.067 67.7639 200.878 67.9528 200.878 68.1826Z" fill="#263238"/>
<path d="M200.618 67.7281C200.674 67.7843 200.98 67.5187 201.434 67.4932C201.884 67.4626 202.226 67.6873 202.272 67.626C202.297 67.6005 202.241 67.4983 202.088 67.3962C201.94 67.2941 201.695 67.2022 201.414 67.2175C201.133 67.2328 200.898 67.3554 200.766 67.4728C200.633 67.5953 200.592 67.7026 200.618 67.7281Z" fill="#263238"/>
<path d="M200.48 71.9762C199.919 72.2573 198.923 72.656 198.295 72.7276C198.295 72.7276 198.851 73.5249 199.791 73.1518C200.766 72.7685 200.48 71.9762 200.48 71.9762Z" fill="white"/>
<path d="M198.861 77.1541C198.861 77.1541 201.072 77.1796 203.207 75.6871C203.207 75.6871 202.221 78.0997 198.933 77.9617L198.861 77.1541Z" fill="#D78776"/>
<path d="M217.549 74.1792C217.258 74.1945 216.824 74.1485 216.36 73.9083C215.89 73.6783 215.43 73.2438 215.063 72.6509C214.69 72.0631 214.404 71.3322 214.093 70.5706C213.48 69.0423 213.02 67.6264 212.704 66.5939C212.653 66.4304 212.612 66.2822 212.566 66.139C212.54 65.9653 212.51 65.8068 212.479 65.6892C210.692 58.8452 204.677 57.5673 203.488 57.5673C202.211 57.5673 199.98 56.8671 196.727 60.2457C196.181 60.813 195.788 61.3855 195.492 61.9478C194.654 63.0007 194.21 64.1661 194.041 65.0401C193.842 66.0419 193.929 66.6706 193.965 66.6706C194.026 66.6706 194.036 66.0521 194.292 65.1014C194.419 64.6261 194.618 64.0638 194.92 63.4863C194.445 65.6075 195.252 67.2686 195.252 67.2686L196.416 66.9466L200.592 65.5257C200.215 64.2325 200.771 62.6224 201.088 61.8711L201.118 61.8404C202.073 66.7524 206.638 67.2073 206.638 67.2073L207.409 77.9564C212.959 76.7706 212.837 69.3336 212.801 67.8207C213.051 68.6743 213.378 69.6505 213.791 70.6728C214.103 71.4344 214.399 72.1755 214.808 72.7889C215.206 73.4074 215.732 73.8674 216.247 74.0872C216.763 74.3172 217.238 74.3325 217.544 74.2814C217.851 74.2201 217.999 74.1229 217.994 74.1076C217.999 74.1025 217.841 74.1587 217.549 74.1792Z" fill="#263238"/>
<path d="M198.984 71.5466C198.984 71.5211 198.703 71.4904 198.243 71.4546C198.126 71.4495 198.014 71.4342 197.993 71.3473C197.963 71.2604 198.009 71.1275 198.06 70.9844C198.157 70.6879 198.259 70.3761 198.371 70.049C198.586 69.3794 198.769 68.7763 198.897 68.3316C199.025 67.8869 199.086 67.6109 199.066 67.6058C199.04 67.6007 198.933 67.8614 198.774 68.2958C198.616 68.7252 198.412 69.3283 198.197 69.9928C198.095 70.3199 197.993 70.6368 197.901 70.9333C197.861 71.0713 197.794 71.2297 197.855 71.4035C197.891 71.4904 197.973 71.5517 198.049 71.5671C198.121 71.5875 198.187 71.5824 198.243 71.5824C198.703 71.5824 198.984 71.5722 198.984 71.5466Z" fill="#263238"/>
<path d="M208.354 71.4088C208.333 70.8619 208.333 70.2996 208.527 69.7885C208.726 69.2774 209.16 68.8276 209.707 68.7713C210.335 68.7049 210.937 69.2263 211.039 69.8498C211.136 70.4734 210.779 71.1174 210.227 71.4292C209.681 71.7359 208.982 71.7308 208.405 71.4804" fill="#E5BAAB"/>
<path d="M209.308 70.9329C209.329 70.8971 209.487 70.9789 209.717 70.9073C209.952 70.8511 210.186 70.5853 210.207 70.2071C210.222 70.0231 210.181 69.8544 210.089 69.7675C209.997 69.6806 209.849 69.6551 209.732 69.6602C209.487 69.6806 209.313 69.7471 209.298 69.7062C209.288 69.6806 209.41 69.5528 209.701 69.471C209.849 69.4404 210.059 69.4302 210.253 69.5784C210.447 69.7368 210.493 69.9975 210.477 70.2275C210.462 70.4626 210.375 70.6824 210.232 70.8409C210.094 70.9993 209.906 71.0811 209.747 71.0965C209.431 71.1271 209.283 70.9533 209.308 70.9329Z" fill="#D78776"/>
<path d="M204.284 201.467V196.683L213.234 196.626L213.306 203.624L212.749 203.665C210.278 203.818 200.184 204.268 198.529 203.777C196.691 203.23 204.284 201.467 204.284 201.467Z" fill="#FF4267"/>
<path d="M198.325 203.342C198.325 203.256 201.675 203.189 205.805 203.189C209.936 203.189 213.286 203.256 213.286 203.342C213.286 203.424 209.936 203.496 205.805 203.496C201.675 203.496 198.325 203.424 198.325 203.342Z" fill="#263238"/>
<path d="M204.13 202.442C204.054 202.483 203.88 202.309 203.701 202.08C203.523 201.85 203.405 201.635 203.461 201.574C203.518 201.513 203.752 201.64 203.941 201.891C204.135 202.146 204.202 202.401 204.13 202.442Z" fill="#263238"/>
<path d="M203.558 202.76C203.477 202.791 203.318 202.576 203.155 202.3C202.992 202.024 202.879 201.779 202.946 201.722C203.012 201.671 203.242 201.845 203.415 202.141C203.594 202.443 203.635 202.729 203.558 202.76Z" fill="#263238"/>
<path d="M210.584 203.307C210.548 203.281 210.62 203.113 210.778 202.862C210.937 202.612 211.182 202.274 211.565 201.993C211.948 201.712 212.392 201.6 212.703 201.625C213.02 201.646 213.183 201.768 213.168 201.799C213.153 201.845 212.979 201.804 212.708 201.84C212.443 201.871 212.08 201.993 211.743 202.239C211.406 202.484 211.146 202.781 210.952 202.99C210.753 203.21 210.62 203.333 210.584 203.307Z" fill="#263238"/>
<path d="M204.1 201.543C204.141 201.472 204.345 201.508 204.57 201.584C204.794 201.666 204.973 201.763 204.963 201.845C204.953 201.926 204.723 201.962 204.467 201.87C204.212 201.789 204.059 201.615 204.1 201.543Z" fill="#263238"/>
<path d="M204.243 201.083C204.253 201.002 204.493 200.935 204.779 200.935C205.07 200.94 205.305 201.012 205.31 201.093C205.315 201.175 205.075 201.242 204.774 201.242C204.472 201.236 204.232 201.165 204.243 201.083Z" fill="#263238"/>
<path d="M196.288 118.454L191.381 119.271L194.204 122.747C195.016 139.119 194.817 154.974 195.568 162.881C195.68 164.082 200.745 201.748 200.245 200.864L215.154 201.487L210.702 163.663L212.811 130.066C215.098 126.1 215.767 121.398 214.68 116.946L214.312 115.433" fill="#455A64"/>
<path d="M206.566 59.3308C205.826 59.0445 205.223 58.3954 205.034 57.6236C204.845 56.8518 205.106 55.9778 205.708 55.4615C206.316 54.9453 207.25 54.843 207.929 55.2519C208.486 55.5842 208.823 56.1924 209.032 56.8058C209.175 57.2147 209.272 57.6594 209.165 58.0785C209.007 58.7072 208.414 59.1519 207.791 59.3206C207.169 59.4892 206.505 59.433 205.861 59.3717" fill="#263238"/>
<path d="M219.724 68.4391C219.694 68.434 219.842 68.1989 219.755 67.7695C219.709 67.56 219.602 67.3095 219.398 67.0846C219.199 66.8597 218.892 66.6808 218.519 66.5786C218.147 66.4763 217.718 66.4559 217.258 66.4866C216.799 66.5172 216.298 66.599 215.757 66.6092C215.221 66.6195 214.618 66.5479 214.098 66.2157C213.551 65.8834 213.286 65.2496 213.107 64.6772C212.755 63.522 212.152 62.5304 211.473 61.7433C210.789 60.9561 210.038 60.3785 209.359 59.9747C207.991 59.1723 206.98 59.0445 207 58.9831C207 58.9729 207.062 58.978 207.179 58.9985C207.296 59.0189 207.47 59.0394 207.685 59.1007C208.124 59.2029 208.741 59.4227 209.451 59.8061C210.156 60.1945 210.947 60.7721 211.657 61.5746C212.367 62.3719 213 63.4096 213.362 64.5903C213.546 65.1627 213.781 65.7045 214.241 65.9908C214.69 66.2821 215.246 66.3639 215.752 66.3588C216.268 66.3537 216.768 66.2821 217.243 66.2617C217.718 66.2361 218.172 66.2668 218.57 66.3946C218.969 66.5121 219.301 66.7268 219.51 66.9875C219.724 67.2431 219.821 67.5242 219.857 67.7542C219.888 67.9842 219.852 68.1682 219.811 68.2807C219.776 68.3931 219.73 68.4442 219.724 68.4391Z" fill="#263238"/>
<path d="M210.294 71.3784C210.309 71.3528 210.539 71.547 210.539 71.9917C210.534 72.2013 210.447 72.4773 210.227 72.6766C210.018 72.876 209.686 73.0038 209.344 72.9526C209.002 72.8964 208.731 72.6664 208.593 72.4108C208.45 72.1502 208.455 71.8639 208.522 71.6646C208.66 71.2455 208.941 71.133 208.946 71.1637C208.976 71.1943 208.772 71.3579 208.711 71.7106C208.68 71.8844 208.695 72.0991 208.818 72.2882C208.93 72.4773 209.145 72.646 209.395 72.6869C209.645 72.7277 209.895 72.6357 210.069 72.4926C210.243 72.3495 210.324 72.1502 210.355 71.9764C210.396 71.6186 210.253 71.3988 210.294 71.3784Z" fill="#E0E0E0"/>
<path d="M208.971 59.9747C208.905 60.0309 208.251 59.2029 207.128 58.6151C206.009 58.0119 204.958 57.9352 204.968 57.8535C204.958 57.787 206.076 57.741 207.255 58.3748C208.44 58.9933 209.032 59.9491 208.971 59.9747Z" fill="#E8505B"/>
<path d="M210.876 70.7547C210.876 70.719 211.019 70.7088 211.11 70.8773C211.151 70.9539 211.172 71.0764 211.116 71.199C211.054 71.3266 210.911 71.4083 210.768 71.4134C210.625 71.4185 210.482 71.3521 210.411 71.2449C210.334 71.1428 210.324 71.0305 210.334 70.9488C210.36 70.7752 210.457 70.7139 210.482 70.7394C210.518 70.7598 210.498 70.8415 210.528 70.9437C210.559 71.0509 210.631 71.1479 210.763 71.1377C210.891 71.1326 210.942 71.0458 210.932 70.9386C210.927 70.8415 210.865 70.7905 210.876 70.7547Z" fill="#E0E0E0"/>
<path d="M212.12 91.7548C192.491 96.1255 182.445 87.0686 181.091 85.7309C181.091 85.7309 181.062 85.5965 181.01 85.6507C180.958 85.5973 180.931 85.7319 180.931 85.7319C179.596 87.0863 169.681 96.2671 149.99 92.1405C149.99 92.1405 147.225 127.47 158.788 141.805C171.138 157.114 181.502 161.702 181.554 161.662C181.606 161.702 191.993 157.074 204.034 141.524C215.299 126.976 212.12 91.7548 212.12 91.7548Z" fill="white"/>
<path d="M209.27 95.4055C191.457 99.2987 182.343 91.2366 181.114 90.0459C181.114 90.0459 181.088 89.9264 181.041 89.9745C180.993 89.9269 180.969 90.0467 180.969 90.0467C179.757 91.2527 170.759 99.4271 152.892 95.7555C152.892 95.7555 150.377 127.209 160.869 139.969C172.074 153.598 181.474 158.523 181.521 158.487C181.569 158.522 190.998 153.56 201.926 139.715C212.15 126.761 209.27 95.4055 209.27 95.4055Z" fill="#3629B7"/>
<g opacity="0.02">
<path opacity="0.02" d="M180.983 93.1445C180.983 93.1445 181.009 93.0189 181.059 93.0687C181.108 93.0181 181.135 93.1434 181.135 93.1434C182.397 94.3664 191.601 102.507 209.548 98.9795C209.438 95.7762 209.254 93.7718 209.254 93.7718C191.44 97.665 182.326 89.6029 181.097 88.412C181.097 88.412 181.071 88.2924 181.024 88.3406C180.977 88.293 180.952 88.4128 180.952 88.4128C179.74 89.6188 170.742 97.7932 152.875 94.1216C152.875 94.1216 152.715 96.1274 152.644 99.3303C170.648 102.641 179.738 94.3834 180.983 93.1445Z" fill="black"/>
</g>
<path d="M204.044 104.176C190.586 107.172 182.091 100.651 181.163 99.7336C181.163 99.7336 181.143 99.6414 181.108 99.6786C181.072 99.6419 181.053 99.7342 181.053 99.7342C180.138 100.663 171.823 107.271 158.323 104.442C158.323 104.442 157.944 128.35 165.872 138.177C174.339 148.673 181.445 151.819 181.48 151.791C181.516 151.818 188.637 148.645 196.892 137.985C204.616 128.011 204.044 104.176 204.044 104.176Z" fill="#5655B9"/>
<path d="M207.383 80.9312C207.399 80.9312 207.445 81.1254 207.439 81.4832C207.439 81.841 207.373 82.3675 207.143 82.9706C206.908 83.5686 206.495 84.2484 205.826 84.8004C205.167 85.3576 204.248 85.7307 203.258 85.7972C202.267 85.8534 201.307 85.5927 200.587 85.1173C199.862 84.6471 199.367 84.0235 199.06 83.4613C198.759 82.8888 198.632 82.3777 198.586 82.0199C198.54 81.6621 198.565 81.4628 198.575 81.4628C198.637 81.4474 198.601 82.2755 199.229 83.3642C199.546 83.8957 200.031 84.4733 200.72 84.9027C201.404 85.3371 202.303 85.5723 203.237 85.5211C204.172 85.4598 205.034 85.1173 205.663 84.6062C206.296 84.0951 206.709 83.4613 206.959 82.899C207.455 81.7439 207.322 80.9261 207.383 80.9312Z" fill="#455A64"/>
<path d="M206.311 198.068C206.306 198.068 206.296 198.022 206.28 197.93C206.265 197.822 206.245 197.689 206.219 197.521C206.168 197.142 206.102 196.616 206.015 195.952C205.841 194.587 205.606 192.614 205.336 190.166C204.794 185.279 204.126 178.517 203.523 171.039C202.926 163.556 202.507 156.778 202.262 151.866C202.139 149.413 202.053 147.425 202.007 146.05C201.986 145.38 201.971 144.848 201.961 144.465C201.961 144.296 201.956 144.164 201.956 144.051C201.956 143.959 201.961 143.913 201.961 143.908C201.966 143.908 201.971 143.954 201.981 144.046C201.991 144.153 202.002 144.291 202.012 144.455C202.037 144.838 202.068 145.365 202.109 146.034C202.19 147.43 202.308 149.408 202.451 151.846C202.742 156.753 203.191 163.53 203.794 171.008C204.396 178.486 205.034 185.243 205.525 190.135C205.775 192.563 205.974 194.536 206.117 195.926C206.183 196.596 206.234 197.122 206.27 197.5C206.285 197.669 206.296 197.802 206.306 197.909C206.316 198.022 206.316 198.068 206.311 198.068Z" fill="#263238"/>
<path d="M217.549 98.2637L208.792 92.4982C208.792 92.4982 204.508 104.847 203.196 104.97C195.925 105.634 188.144 103.222 185.417 102.266C185.141 101.954 184.825 101.581 184.472 101.121C184.171 100.727 183.941 100.283 183.788 99.8125C183.604 99.24 183.385 98.4733 183.4 98.0133C183.415 97.4459 182.736 97.1546 182.42 97.5635C182.103 97.9724 182.027 99.5314 182.741 101.208C183.461 102.884 180.919 101.55 179.984 101.08C179.05 100.61 176.088 99.2911 175.721 99.4649C175.174 99.7205 175.348 100.349 176.292 100.799C177.247 101.254 179.974 102.787 179.703 103.268C179.438 103.743 174.71 101.285 174.71 101.285C174.71 101.285 173.785 100.595 173.454 101.141C172.856 102.128 178.069 104.367 178.57 104.571C178.917 104.709 178.641 105.246 178.274 105.077C177.896 104.903 173.617 102.516 172.999 103.513C172.524 104.28 177.273 105.399 177.886 106.386C178.498 107.372 174.373 105.169 173.949 105.921C173.791 106.202 173.709 106.432 176.267 107.352C177.508 107.801 179.841 108.348 181.955 108.808L181.945 108.834C181.945 108.834 208.016 120.518 212.948 109.243C218.192 97.2517 217.549 98.2637 217.549 98.2637Z" fill="#E5BAAB"/>
<path d="M211.795 81.3811C211.795 81.3811 219.766 82.3216 218.918 91.8082C218.06 101.484 214.062 108.63 214.062 108.63L203.615 103.14C205.959 98.3865 207.756 93.4694 208.885 88.3478L211.795 81.3811Z" fill="#FF4267"/>
<path d="M208.277 91.1335C208.297 91.1386 208.261 91.3175 208.19 91.6293C208.118 91.9462 207.996 92.396 207.832 92.9532C207.511 94.0623 207.01 95.5855 206.367 97.2314C205.719 98.8772 205.05 100.329 204.529 101.361C204.268 101.878 204.049 102.292 203.886 102.573C203.727 102.854 203.63 103.007 203.61 102.997C203.574 102.976 203.875 102.332 204.35 101.28C204.825 100.227 205.463 98.7699 206.107 97.1342C206.75 95.4986 207.276 93.9959 207.644 92.9021C208.016 91.8031 208.241 91.1233 208.277 91.1335Z" fill="#455A64"/>
<path d="M208.277 91.1335C208.297 91.1386 208.261 91.3175 208.19 91.6293C208.118 91.9462 207.996 92.396 207.832 92.9532C207.511 94.0623 207.01 95.5855 206.367 97.2314C205.719 98.8772 205.05 100.329 204.529 101.361C204.268 101.878 204.049 102.292 203.886 102.573C203.727 102.854 203.63 103.007 203.61 102.997C203.574 102.976 203.875 102.332 204.35 101.28C204.825 100.227 205.463 98.7699 206.107 97.1342C206.75 95.4986 207.276 93.9959 207.644 92.9021C208.016 91.8031 208.241 91.1233 208.277 91.1335Z" fill="#455A64"/>
<g clip-path="url(#clip0_295_35317)">
<path d="M92.0001 190.719C92.0001 189.606 92.2773 188.551 92.8345 187.596C94.1678 185.311 96.9581 184 100.49 184C106.701 184 113.846 187.907 116.755 192.894C118.321 195.579 118.491 198.246 117.233 200.404C115.899 202.69 113.109 204 109.577 204C103.366 204 96.2218 200.093 93.3126 195.106C92.4394 193.61 92.0001 192.119 92.0001 190.719ZM113.592 197.271C113.592 196.471 113.186 195.626 112.883 195.106C110.77 191.484 105.095 188.424 100.49 188.424C98.626 188.424 97.2116 188.941 96.7059 189.808C96.1304 190.794 96.7585 192.165 97.1834 192.894C99.2963 196.516 104.971 199.575 109.576 199.575C111.44 199.575 112.855 199.058 113.36 198.192C113.526 197.909 113.592 197.593 113.592 197.271Z" fill="#FFAF2A"/>
<path d="M108.583 200.367C112.071 200.367 113.361 198.192 113.361 198.192C112.855 199.058 111.441 199.575 109.577 199.575C104.972 199.575 99.297 196.516 97.1838 192.894C96.7589 192.165 96.1308 190.795 96.706 189.808C96.706 189.808 95.555 191.644 96.9528 194.18C98.9766 197.851 103.978 200.367 108.583 200.367Z" fill="#FFAF2A"/>
<path d="M152.189 196.878C153.465 196.878 154.5 195.854 154.5 194.59C154.5 193.327 153.465 192.303 152.189 192.303C152.187 192.303 152.185 192.303 152.183 192.303L152.183 192.303L115.426 192.303C115.085 192.303 114.743 192.526 114.483 192.973C113.962 193.866 113.962 195.315 114.483 196.208C114.743 196.655 115.085 196.878 115.426 196.878L152.182 196.878L152.182 196.878C152.185 196.878 152.186 196.878 152.189 196.878Z" fill="#FFAF2A"/>
<path d="M143.975 195.051C144.827 195.051 145.862 194.459 146.287 193.73C146.504 193.359 146.519 193.025 146.371 192.785L146.373 192.784L143.088 187.14L143.006 187.003C142.996 186.983 142.986 186.964 142.973 186.948C142.907 186.85 142.832 186.759 142.749 186.678C142.408 186.336 141.931 186.125 141.409 186.125C140.692 186.125 140.068 186.518 139.746 187.097C139.602 187.364 139.519 187.666 139.519 187.991C139.519 188.313 139.601 188.619 139.746 188.882C139.766 188.918 139.789 188.954 139.809 188.99L143.114 194.67L143.115 194.669C143.256 194.905 143.553 195.051 143.975 195.051Z" fill="#FFAF2A"/>
<path d="M134.771 195.051C135.622 195.051 136.657 194.459 137.083 193.73C137.299 193.359 137.314 193.025 137.167 192.785L137.169 192.784L133.33 186.168L133.248 186.032C133.238 186.012 133.228 185.993 133.215 185.977C133.15 185.879 133.074 185.788 132.992 185.707C132.65 185.365 132.174 185.154 131.651 185.154C130.935 185.154 130.311 185.547 129.989 186.126C129.844 186.393 129.762 186.695 129.762 187.021C129.762 187.342 129.844 187.648 129.989 187.912C130.008 187.947 130.031 187.983 130.051 188.019L133.909 194.67L133.911 194.669C134.052 194.905 134.348 195.051 134.771 195.051Z" fill="#FFAF2A"/>
</g>
<path d="M240.072 62.9074L248.927 62.9082C248.723 62.631 248.53 62.3501 248.363 62.0617L247.252 60.1374C245.276 56.714 246.878 53.9377 250.831 53.9384C252.431 53.9382 254.171 54.3992 255.808 55.1679C253.808 50.5824 256.259 47.0285 261.729 47.0286C267.644 47.0284 274.836 51.1803 277.794 56.3029L279.456 59.1816C280.222 60.5083 280.622 61.767 280.701 62.9083L288.056 62.9076C290.249 62.9082 292.916 64.447 294.012 66.3462C295.109 68.2454 294.22 69.7848 292.026 69.7847L244.043 69.7854C241.85 69.7849 239.184 68.2461 238.087 66.3469C236.991 64.4477 237.879 62.9083 240.072 62.9074Z" fill="#F2F1F9"/>
<path d="M177.142 16.1815L182.627 16.182C182.5 16.0103 182.38 15.8363 182.277 15.6576L181.589 14.4657C180.365 12.3452 181.358 10.6256 183.806 10.6259C184.797 10.6258 185.875 10.9114 186.889 11.3875C185.65 8.54718 187.168 6.34586 190.556 6.34591C194.22 6.34581 198.675 8.91758 200.507 12.0905L201.536 13.8736C202.011 14.6954 202.259 15.4751 202.308 16.182L206.864 16.1816C208.222 16.1819 209.874 17.1351 210.553 18.3115C211.232 19.4879 210.682 20.4414 209.323 20.4414L179.602 20.4418C178.243 20.4415 176.591 19.4883 175.912 18.3119C175.233 17.1355 175.783 16.182 177.142 16.1815Z" fill="#F2F1F9"/>
<path d="M35.8277 66.4987L42.5104 66.4994C42.3563 66.2905 42.2105 66.0779 42.085 65.8606L41.2465 64.4082C39.7545 61.824 40.9643 59.7295 43.9481 59.7296C45.156 59.7297 46.469 60.0778 47.7031 60.6574C46.1934 57.1966 48.0445 54.5147 52.1726 54.5147C56.6366 54.5147 62.0647 57.6485 64.2967 61.5144L65.5507 63.6864C66.1287 64.6875 66.4304 65.638 66.4902 66.4996L72.0407 66.4993C73.6952 66.499 75.708 67.6613 76.5355 69.0946C77.363 70.5279 76.6922 71.69 75.0377 71.6903L38.8242 71.6888C37.1697 71.6891 35.1569 70.5268 34.3294 69.0935C33.5019 67.6602 34.1732 66.499 35.8277 66.4987Z" fill="#F2F1F9"/>
<defs>
<clipPath id="clip0_295_35317">
<rect width="20" height="62.5" fill="white" transform="translate(154.5 184) rotate(90)"/>
</clipPath>
</defs>
</svg>
