<svg width="28" height="28" viewBox="0 0 28 28" fill="none" xmlns="http://www.w3.org/2000/svg">
<path d="M24.5002 0H3.50016C2.85616 0 2.3335 0.5215 2.3335 1.16667V28L7.00016 24.5L10.5002 28L14.0002 24.5L17.5002 28L21.0002 24.5L25.6668 28V1.16667C25.6668 0.5215 25.1442 0 24.5002 0ZM15.1668 18.6667H7.00016V16.3333H15.1668V18.6667ZM15.1668 14H7.00016V11.6667H15.1668V14ZM15.1668 9.33333H7.00016V7H15.1668V9.33333ZM21.0002 18.6667H17.5002V16.3333H21.0002V18.6667ZM21.0002 14H17.5002V11.6667H21.0002V14ZM21.0002 9.33333H17.5002V7H21.0002V9.33333Z" fill="#52D5BA"/>
</svg>
