<svg width="28" height="28" viewBox="0 0 28 28" fill="none" xmlns="http://www.w3.org/2000/svg">
<g clip-path="url(#clip0_2010_15904)">
<path d="M19.25 8.16665H10.0532C8.80367 6.03632 6.6955 5.70615 5.66767 5.84498L4.33767 6.03515L5.537 10.1523C4.6375 10.8908 3.8955 11.7985 3.35067 12.8333H0V21H3.34367C4.75883 23.6868 7.46083 25.4252 10.5 25.627V28H12.8333V25.6667H17.5V28H19.8333V25.6375C24.3857 25.3353 28 21.5448 28 16.9167C28 12.0913 24.0753 8.16665 19.25 8.16665ZM19.8333 15.1667H11.6667V12.8333H19.8333V15.1667Z" fill="#5655B9"/>
<path d="M15.7502 5.83333C17.361 5.83333 18.6668 4.5275 18.6668 2.91667C18.6668 1.30584 17.361 0 15.7502 0C14.1393 0 12.8335 1.30584 12.8335 2.91667C12.8335 4.5275 14.1393 5.83333 15.7502 5.83333Z" fill="#5655B9"/>
</g>
<defs>
<clipPath id="clip0_2010_15904">
<rect width="28" height="28" fill="white"/>
</clipPath>
</defs>
</svg>
